<svg width="144" height="42" viewBox="0 0 144 42" fill="none" xmlns="http://www.w3.org/2000/svg">
<path opacity="0.4" d="M11.4048 2.0448C11.8151 0.823111 12.9599 0 14.2487 0H133.232C135.283 0 136.729 2.01135 136.076 3.95519L126 33.9552C125.589 35.1769 124.445 36 123.156 36H4.17233C2.12177 36 0.675568 33.9887 1.32846 32.0448L11.4048 2.0448Z" fill="url(#paint0_linear_30_2493)"/>
<path opacity="0.3" d="M18.0003 8.0448C18.4106 6.82311 19.5554 6 20.8441 6H139.828C141.878 6 143.324 8.01135 142.672 9.95519L132.595 39.9552C132.185 41.1769 131.04 42 129.751 42H10.7678C8.71723 42 7.27103 39.9887 7.92392 38.0448L18.0003 8.0448Z" fill="url(#paint1_linear_30_2493)"/>
<g filter="url(#filter0_ii_30_2493)">
<path d="M15.8018 5.0448C16.2121 3.82311 17.3569 3 18.6456 3H137.629C139.68 3 141.126 5.01135 140.473 6.95519L130.397 36.9552C129.986 38.1769 128.842 39 127.553 39H8.5693C6.51874 39 5.07254 36.9887 5.72543 35.0448L15.8018 5.0448Z" fill="url(#paint2_linear_30_2493)"/>
</g>
<g filter="url(#filter1_d_30_2493)">
<path d="M51.5938 14.7734H52.8125C52.5365 14.2161 52.1667 13.6224 51.7031 12.9922L53.1094 12.1172C53.4323 12.5026 53.8698 13.1068 54.4219 13.9297L53.0156 14.7734H54.7656V11.7109H56.75V14.7734H58.3906L57.0938 13.9297C57.6146 13.2943 58.0521 12.6745 58.4062 12.0703L59.875 12.9453C59.526 13.5391 59.0938 14.1484 58.5781 14.7734H59.4844V16.3672H56.75V17.4609L57.2812 16.7422C57.9323 17.0911 58.5495 17.4349 59.1328 17.7734C59.987 16.1901 60.724 14.1432 61.3438 11.6328L63.4844 11.8359C63.276 12.6432 63.0547 13.4141 62.8203 14.1484H66.7344V16.0547H66.1016C65.8776 18.8151 65.2917 21.0833 64.3438 22.8594C65.0104 23.6354 65.8281 24.3047 66.7969 24.8672C66.4219 25.2943 65.9688 25.987 65.4375 26.9453C64.526 26.3359 63.737 25.5964 63.0703 24.7266C62.2109 25.737 61.2135 26.5547 60.0781 27.1797C59.6562 26.5807 59.1901 26.0182 58.6797 25.4922L58.125 26.4141C57.5 26.0547 56.8177 25.6901 56.0781 25.3203C54.9375 26.0807 53.5729 26.6224 51.9844 26.9453C51.7969 26.3724 51.5208 25.7318 51.1562 25.0234C52.2448 24.9089 53.2031 24.6901 54.0312 24.3672C53.3125 24.0495 52.5521 23.7266 51.75 23.3984C52.1042 22.8828 52.4219 22.3672 52.7031 21.8516H51.4219V20.2578H53.4766C53.6484 19.8464 53.7969 19.4349 53.9219 19.0234L54.7656 19.1016V17.6016C53.9948 18.4141 53.026 19.1693 51.8594 19.8672C51.6406 19.1693 51.3958 18.5443 51.125 17.9922C52.1615 17.5911 53.0964 17.0495 53.9297 16.3672H51.5938V14.7734ZM61.9844 16.5C62.1927 18.2344 62.5573 19.6849 63.0781 20.8516C63.6979 19.487 64.0677 17.888 64.1875 16.0547H62.1562C62.1042 16.2057 62.0469 16.3542 61.9844 16.5ZM56.75 19.4609H55.9609C55.8411 19.7161 55.7083 19.9818 55.5625 20.2578H59.2031V21.7109C58.7969 22.5599 58.2891 23.3125 57.6797 23.9688L59.2344 24.5859L58.9219 25.0938C60.0729 24.4948 61.0547 23.7188 61.8672 22.7656C61.3568 21.7188 60.9661 20.5469 60.6953 19.25C60.513 19.5781 60.3281 19.8932 60.1406 20.1953C59.901 19.7786 59.6224 19.349 59.3047 18.9062L58.8438 19.6016C58.1979 19.1641 57.5 18.7214 56.75 18.2734V19.4609ZM54.25 22.6641L55.875 23.2734C56.3438 22.8672 56.7292 22.3932 57.0312 21.8516H54.7109L54.25 22.6641ZM82.7344 20.2109H79.1719V21.5234H81.7969V27.1328H79.9531V26.3516H76.4688V27.1328H74.625V21.5234H77.2031V20.2109H74.4688C74.2812 23.0651 73.6146 25.3307 72.4688 27.0078C72.0312 26.4349 71.5625 25.9036 71.0625 25.4141C72.1042 23.5911 72.625 21.1172 72.625 17.9922V12.2891H82.0781V17.1797H79.1719V18.5703H82.7344V20.2109ZM67.4219 14.6328H68.9062V11.8672H70.7969V14.6328H72.1406V16.6328H70.7969V18.8203C71.2448 18.7266 71.7188 18.6172 72.2188 18.4922C72.1667 19.3255 72.1458 20.0026 72.1562 20.5234C71.6979 20.638 71.2448 20.7526 70.7969 20.8672V25.1484C70.7969 26.3047 70.3229 26.8984 69.375 26.9297C68.8229 26.9818 68.2917 26.9974 67.7812 26.9766C67.6771 26.362 67.526 25.6849 67.3281 24.9453C67.6719 24.9557 68.0208 24.9661 68.375 24.9766C68.7292 24.987 68.9062 24.737 68.9062 24.2266V21.3516C68.4062 21.487 67.9062 21.6172 67.4062 21.7422L67.2344 19.5859C67.7031 19.4922 68.2604 19.3776 68.9062 19.2422V16.6328H67.4219V14.6328ZM80.1562 15.5391V13.9297H74.5312V15.5391H80.1562ZM79.9531 23.1641H76.4688V24.7109H79.9531V23.1641ZM77.2031 18.5703V17.1797H74.5312V18.5703H77.2031ZM83.5312 15.6797H89.7031C89.776 14.5443 89.8073 13.2318 89.7969 11.7422H92.1719C92.1406 13.2891 92.099 14.6016 92.0469 15.6797H98.5V17.8359H92.2266C93.1224 21.3151 95.2865 23.6536 98.7188 24.8516C97.9792 25.6953 97.3854 26.4141 96.9375 27.0078C94.099 25.6745 92.1224 23.526 91.0078 20.5625C90.1432 23.276 88.1458 25.4609 85.0156 27.1172C84.599 26.5859 84.0104 25.9193 83.25 25.1172C87.0417 23.3984 89.1172 20.9714 89.4766 17.8359H83.5312V15.6797ZM100.531 12.3359H113.969V17.0078H111.734C111.922 17.1016 112.125 17.2005 112.344 17.3047L111.492 18.3672H114.062V20.2422H111.906V21.5234H114.812V23.3984H111.906V26.9609H109.812V23.3984H107.172C106.943 24.888 106.255 26.1693 105.109 27.2422C104.37 26.7943 103.719 26.4089 103.156 26.0859C104.094 25.3203 104.706 24.4245 104.992 23.3984H102.359C102.104 24.7682 101.651 26.0339 101 27.1953C100.49 26.487 99.9688 25.8203 99.4375 25.1953C100.167 23.8411 100.531 21.1953 100.531 17.2578V12.3359ZM111.812 15.3984V14.2109H102.688V15.3984H111.812ZM103.125 18.3672H105.516L104.828 17.3984L105.43 17.0078H102.688C102.688 18.8516 102.648 20.3568 102.57 21.5234H105.188V20.2422H103.125V18.3672ZM107.805 18.3672H109.258C109.529 17.9453 109.805 17.4922 110.086 17.0078H106.844C107.146 17.4245 107.466 17.8776 107.805 18.3672ZM107.266 21.5234H109.812V20.2422H107.266V21.5234Z" fill="white"/>
</g>
<g filter="url(#filter2_d_30_2493)">
<path d="M40.3036 25.4569H29.6965C29.2527 25.4569 28.8929 25.8023 28.8929 26.2284C28.8929 26.6545 29.2526 27 29.6965 27H40.3036C40.7474 27 41.1072 26.6546 41.1072 26.2284C41.1072 25.8023 40.7474 25.4569 40.3036 25.4569ZM42.7143 12H27.2857C26.5756 12 26 12.5527 26 13.2345V23.1104C26 23.7921 26.5757 24.3448 27.2857 24.3448H42.7143C43.4244 24.3448 44 23.7921 44 23.1104V13.2345C44 12.5527 43.4244 12 42.7143 12ZM40.6827 16.9344L37.141 20.335C37.0282 20.4433 36.8727 20.4903 36.7123 20.4788C36.5518 20.4902 36.3963 20.4433 36.2835 20.335L33.2819 17.453L30.2803 20.335C30.0532 20.553 29.6536 20.5227 29.3877 20.2674C29.1218 20.0121 29.0903 19.6284 29.3174 19.4104L32.8591 16.0098C32.9705 15.9028 33.1235 15.8558 33.2819 15.8657C33.4403 15.8558 33.5933 15.9028 33.7048 16.0098L36.7122 18.8975L39.7198 16.0098C39.9468 15.7918 40.3464 15.8221 40.6123 16.0774C40.8782 16.3327 40.9097 16.7164 40.6827 16.9344Z" fill="white"/>
</g>
<defs>
<filter id="filter0_ii_30_2493" x="5.56702" y="3" width="135.065" height="36" filterUnits="userSpaceOnUse" color-interpolation-filters="sRGB">
<feFlood flood-opacity="0" result="BackgroundImageFix"/>
<feBlend mode="normal" in="SourceGraphic" in2="BackgroundImageFix" result="shape"/>
<feColorMatrix in="SourceAlpha" type="matrix" values="0 0 0 0 0 0 0 0 0 0 0 0 0 0 0 0 0 0 127 0" result="hardAlpha"/>
<feOffset/>
<feGaussianBlur stdDeviation="5"/>
<feComposite in2="hardAlpha" operator="arithmetic" k2="-1" k3="1"/>
<feColorMatrix type="matrix" values="0 0 0 0 0.327339 0 0 0 0 0.701923 0 0 0 0 0.508173 0 0 0 1 0"/>
<feBlend mode="normal" in2="shape" result="effect1_innerShadow_30_2493"/>
<feColorMatrix in="SourceAlpha" type="matrix" values="0 0 0 0 0 0 0 0 0 0 0 0 0 0 0 0 0 0 127 0" result="hardAlpha"/>
<feOffset dx="-2" dy="-2"/>
<feComposite in2="hardAlpha" operator="arithmetic" k2="-1" k3="1"/>
<feColorMatrix type="matrix" values="0 0 0 0 0.359709 0 0 0 0 0.581731 0 0 0 0 0.220946 0 0 0 1 0"/>
<feBlend mode="normal" in2="effect1_innerShadow_30_2493" result="effect2_innerShadow_30_2493"/>
</filter>
<filter id="filter1_d_30_2493" x="50.125" y="11.6328" width="65.6875" height="17.6094" filterUnits="userSpaceOnUse" color-interpolation-filters="sRGB">
<feFlood flood-opacity="0" result="BackgroundImageFix"/>
<feColorMatrix in="SourceAlpha" type="matrix" values="0 0 0 0 0 0 0 0 0 0 0 0 0 0 0 0 0 0 127 0" result="hardAlpha"/>
<feOffset dy="1"/>
<feGaussianBlur stdDeviation="0.5"/>
<feComposite in2="hardAlpha" operator="out"/>
<feColorMatrix type="matrix" values="0 0 0 0 0 0 0 0 0 0 0 0 0 0 0 0 0 0 0.25 0"/>
<feBlend mode="normal" in2="BackgroundImageFix" result="effect1_dropShadow_30_2493"/>
<feBlend mode="normal" in="SourceGraphic" in2="effect1_dropShadow_30_2493" result="shape"/>
</filter>
<filter id="filter2_d_30_2493" x="25" y="12" width="20" height="17" filterUnits="userSpaceOnUse" color-interpolation-filters="sRGB">
<feFlood flood-opacity="0" result="BackgroundImageFix"/>
<feColorMatrix in="SourceAlpha" type="matrix" values="0 0 0 0 0 0 0 0 0 0 0 0 0 0 0 0 0 0 127 0" result="hardAlpha"/>
<feOffset dy="1"/>
<feGaussianBlur stdDeviation="0.5"/>
<feComposite in2="hardAlpha" operator="out"/>
<feColorMatrix type="matrix" values="0 0 0 0 0 0 0 0 0 0 0 0 0 0 0 0 0 0 0.25 0"/>
<feBlend mode="normal" in2="BackgroundImageFix" result="effect1_dropShadow_30_2493"/>
<feBlend mode="normal" in="SourceGraphic" in2="effect1_dropShadow_30_2493" result="shape"/>
</filter>
<linearGradient id="paint0_linear_30_2493" x1="68.7023" y1="0" x2="68.7023" y2="36" gradientUnits="userSpaceOnUse">
<stop stop-color="#91CAA7"/>
<stop offset="0.5" stop-color="#BBDF9F"/>
<stop offset="1" stop-color="#DEF0D6"/>
</linearGradient>
<linearGradient id="paint1_linear_30_2493" x1="96.7329" y1="42" x2="96.7329" y2="-2.5" gradientUnits="userSpaceOnUse">
<stop stop-color="#91CAA7"/>
<stop offset="0.5" stop-color="#BBDF9F"/>
<stop offset="1" stop-color="#DEF0D6"/>
</linearGradient>
<linearGradient id="paint2_linear_30_2493" x1="11.542" y1="3" x2="164.559" y2="52.3314" gradientUnits="userSpaceOnUse">
<stop stop-color="#53AA7D"/>
<stop offset="0.947115" stop-color="#BBDF9F"/>
</linearGradient>
</defs>
</svg>
