<svg width="19" height="18" viewBox="0 0 19 18" fill="none" xmlns="http://www.w3.org/2000/svg">
<path fill-rule="evenodd" clip-rule="evenodd" d="M15.1787 14.5223C15.439 14.2621 15.8774 14.2621 16.1377 14.5223L17.5332 15.9178C17.7934 16.1781 17.7933 16.6156 17.5332 16.8759C17.4031 17.006 17.2253 17.077 17.0479 17.077C16.8705 17.0769 16.7052 17.0059 16.5752 16.8759L15.1787 15.4803C14.9186 15.2202 14.9188 14.7826 15.1787 14.5223ZM10.5771 0.0526153C11.3578 0.0527698 11.996 0.691912 11.9961 1.47254V5.77429C12.1187 5.49128 12.4154 5.31585 12.7305 5.37683C14.2801 5.6491 15.4033 6.98611 15.4033 8.55945C15.4033 10.1328 14.28 11.4699 12.7422 11.7421C12.6949 11.7302 12.6587 11.7303 12.6113 11.7303C12.3529 11.7302 12.1204 11.5812 12.0088 11.3495V15.5868C12.0206 16.3794 11.3814 17.0183 10.5889 17.0184C10.3168 17.0184 10.0558 16.9475 9.83105 16.8055C9.80758 16.7938 9.79603 16.7812 9.77246 16.7694L4.21582 12.9012H0.674805C0.296223 12.9012 0 12.5932 0 12.2264V4.84461C0 4.51343 0.235577 4.24535 0.540039 4.18347C0.583588 4.17433 0.628917 4.1698 0.674805 4.1698H4.2168L9.77246 0.301639C9.79592 0.289905 9.80777 0.278216 9.83105 0.266483C10.0558 0.124514 10.3169 0.0526153 10.5771 0.0526153ZM10.5889 1.42566C10.577 1.42566 10.5646 1.42555 10.5527 1.43738C10.541 1.44893 10.5293 1.44908 10.5176 1.46082L4.82715 5.40027C4.6944 5.49217 4.53983 5.52849 4.38965 5.51844H1.34863V11.5526H4.39648C4.54452 11.5442 4.69642 11.5803 4.82715 11.6708L10.5176 15.6337C10.5294 15.6455 10.5409 15.6463 10.5527 15.6581C10.5646 15.6699 10.5889 15.6698 10.5889 15.6698C10.6243 15.6697 10.6602 15.6339 10.6602 15.5985V1.49597C10.6599 1.44903 10.6242 1.42574 10.5889 1.42566ZM11.9961 7.03504C12.003 7.07298 12.0088 7.11161 12.0088 7.15125V10.7528C12.101 10.5686 12.2755 10.4287 12.4932 10.3934C13.3922 10.2396 14.0429 9.4586 14.043 8.54773C14.043 7.63677 13.3923 6.85583 12.4932 6.70203C12.266 6.65797 12.0846 6.50915 11.9961 6.31531V7.03504ZM18.3262 7.86121C18.7046 7.86138 19 8.16936 19 8.53601C18.9998 8.9025 18.6927 9.20967 18.3262 9.20984H16.291C15.9126 9.20984 15.6164 8.9026 15.6162 8.53601C15.6162 8.16926 15.9243 7.86121 16.291 7.86121H18.3262ZM16.5752 0.195193C16.8355 -0.065056 17.2729 -0.0650729 17.5332 0.195193C17.7934 0.455466 17.7934 0.892941 17.5332 1.1532L16.1377 2.54969C16.0076 2.67978 15.8298 2.75082 15.6523 2.75086C15.4749 2.75086 15.3088 2.67979 15.1787 2.54969C14.9184 2.28941 14.9184 1.85098 15.1787 1.5907L16.5752 0.195193Z" fill="white"/>
</svg>
